{
  "accessors": [
    {
      "bufferView": 2,
      "componentType": 5126,
      "count": 65532,
      "max": [
        2.6957941055297852,
        1.5357966423034668,
        1.7519350051879883
      ],
      "min": [
        0,
        0.043218612670898438,
        0.010176002979278564
      ],
      "type": "VEC3"
    },
    {
      "bufferView": 2,
      "byteOffset": 786384,
      "componentType": 5126,
      "count": 65532,
      "max": [
        0.99983024597167969,
        0.99997812509536743,
        0.99997824430465698
      ],
      "min": [
        -0.99969488382339478,
        -0.99991613626480103,
        -0.99855154752731323
      ],
      "type": "VEC3"
    },
    {
      "bufferView": 3,
      "componentType": 5126,
      "count": 65532,
      "max": [
        0.99998223781585693,
        0.99999040365219116,
        0.99999994039535522,
        1
      ],
      "min": [
        -0.99625515937805176,
        -0.99977654218673706,
        -0.99999994039535522,
        -1
      ],
      "type": "VEC4"
    },
    {
      "bufferView": 3,
      "byteOffset": 1048512,
      "componentType": 5126,
      "count": 65532,
      "max": [
        1,
        1,
        1,
        1
      ],
      "min": [
        1,
        1,
        1,
        1
      ],
      "type": "VEC4"
    },
    {
      "bufferView": 1,
      "componentType": 5126,
      "count": 65532,
      "max": [
        0.99587500095367432,
        0.99915397167205811
      ],
      "min": [
        0.002756000030785799,
        0.0037479999009519815
      ],
      "type": "VEC2"
    },
    {
      "bufferView": 0,
      "componentType": 5125,
      "count": 352134,
      "max": [
        65531
      ],
      "min": [
        0
      ],
      "type": "SCALAR"
    },
    {
      "bufferView": 2,
      "byteOffset": 1572768,
      "componentType": 5126,
      "count": 65532,
      "max": [
        2.6949009895324707,
        1.5357966423034668,
        1.3634070158004761
      ],
      "min": [
        0.0041980743408203125,
        0,
        0.049195051193237305
      ],
      "type": "VEC3"
    },
    {
      "bufferView": 2,
      "byteOffset": 2359152,
      "componentType": 5126,
      "count": 65532,
      "max": [
        0.99988734722137451,
        0.99993300437927246,
        0.9999881386756897
      ],
      "min": [
        -0.99989879131317139,
        -0.99999409914016724,
        -0.99996465444564819
      ],
      "type": "VEC3"
    },
    {
      "bufferView": 3,
      "byteOffset": 2097024,
      "componentType": 5126,
      "count": 65532,
      "max": [
        0.99999409914016724,
        0.9999890923500061,
        0.99999994039535522,
        1
      ],
      "min": [
        -0.99927955865859985,
        -0.99998939037322998,
        -0.99999880790710449,
        -1
      ],
      "type": "VEC4"
    },
    {
      "bufferView": 3,
      "byteOffset": 3145536,
      "componentType": 5126,
      "count": 65532,
      "max": [
        1,
        1,
        1,
        1
      ],
      "min": [
        1,
        1,
        1,
        1
      ],
      "type": "VEC4"
    },
    {
      "bufferView": 1,
      "byteOffset": 524256,
      "componentType": 5126,
      "count": 65532,
      "max": [
        0.99287599325180054,
        0.99941200017929077
      ],
      "min": [
        0.0038260000292211771,
        0.0038189999759197235
      ],
      "type": "VEC2"
    },
    {
      "bufferView": 0,
      "byteOffset": 1408536,
      "componentType": 5125,
      "count": 327792,
      "max": [
        65531
      ],
      "min": [
        0
      ],
      "type": "SCALAR"
    },
    {
      "bufferView": 2,
      "byteOffset": 3145536,
      "componentType": 5126,
      "count": 9492,
      "max": [
        2.5206141471862793,
        1.4981050491333008,
        0.48588401079177856
      ],
      "min": [
        0.20873308181762695,
        0.19170761108398438,
        0
      ],
      "type": "VEC3"
    },
    {
      "bufferView": 2,
      "byteOffset": 3259440,
      "componentType": 5126,
      "count": 9492,
      "max": [
        0.99868011474609375,
        0.99968445301055908,
        0.85558611154556274
      ],
      "min": [
        -0.99842262268066406,
        -0.99500274658203125,
        -0.99987077713012695
      ],
      "type": "VEC3"
    },
    {
      "bufferView": 3,
      "byteOffset": 4194048,
      "componentType": 5126,
      "count": 9492,
      "max": [
        0.99999141693115234,
        0.99929910898208618,
        0.99020010232925415,
        1
      ],
      "min": [
        -0.99927520751953125,
        -0.97077739238739014,
        -0.99995720386505127,
        -1
      ],
      "type": "VEC4"
    },
    {
      "bufferView": 3,
      "byteOffset": 4345920,
      "componentType": 5126,
      "count": 9492,
      "max": [
        1,
        1,
        1,
        1
      ],
      "min": [
        1,
        1,
        1,
        1
      ],
      "type": "VEC4"
    },
    {
      "bufferView": 1,
      "byteOffset": 1048512,
      "componentType": 5126,
      "count": 9492,
      "max": [
        0.99385100603103638,
        0.99786102771759033
      ],
      "min": [
        0.0057990001514554024,
        0.048980001360177994
      ],
      "type": "VEC2"
    },
    {
      "bufferView": 0,
      "byteOffset": 2719704,
      "componentType": 5125,
      "count": 40953,
      "max": [
        9491
      ],
      "min": [
        0
      ],
      "type": "SCALAR"
    }
  ],
  "asset": {
    "extras": {
      "author": "ryanfb (https://sketchfab.com/ryanfb)",
      "license": "CC-BY-4.0 (http://creativecommons.org/licenses/by/4.0/)",
      "source": "https://sketchfab.com/models/cf5d9dd9bf4a457c95dc76e17848727b",
      "title": "Louvre Demosthenes (PhotoScan)"
    },
    "generator": "Sketchfab-3.18.5",
    "version": "2.0"
  },
  "bufferViews": [
    {
      "buffer": 0,
      "byteLength": 2883516,
      "byteOffset": 0,
      "name": "floatBufferViews",
      "target": 34963
    },
    {
      "buffer": 0,
      "byteLength": 1124448,
      "byteOffset": 2883516,
      "byteStride": 8,
      "name": "floatBufferViews",
      "target": 34962
    },
    {
      "buffer": 0,
      "byteLength": 3373344,
      "byteOffset": 4007964,
      "byteStride": 12,
      "name": "floatBufferViews",
      "target": 34962
    },
    {
      "buffer": 0,
      "byteLength": 4497792,
      "byteOffset": 7381308,
      "byteStride": 16,
      "name": "floatBufferViews",
      "target": 34962
    }
  ],
  "buffers": [
    {
      "byteLength": 11879100,
      "uri": "scene.bin"
    }
  ],
  "extensionsUsed": [
    "KHR_materials_unlit"
  ],
  "images": [
    {
      "uri": "textures/material_0_baseColor.jpeg"
    }
  ],
  "materials": [
    {
      "doubleSided": true,
      "emissiveFactor": [
        0,
        0,
        0
      ],
      "extensions": {
        "KHR_materials_unlit": {}
      },
      "name": "material_0",
      "pbrMetallicRoughness": {
        "baseColorFactor": [
          1,
          1,
          1,
          1
        ],
        "baseColorTexture": {
          "index": 0,
          "texCoord": 0
        },
        "metallicFactor": 0,
        "roughnessFactor": 1
      }
    }
  ],
  "meshes": [
    {
      "primitives": [
        {
          "attributes": {
            "COLOR_0": 3,
            "NORMAL": 1,
            "POSITION": 0,
            "TANGENT": 2,
            "TEXCOORD_0": 4
          },
          "indices": 5,
          "material": 0,
          "mode": 4
        }
      ]
    },
    {
      "primitives": [
        {
          "attributes": {
            "COLOR_0": 9,
            "NORMAL": 7,
            "POSITION": 6,
            "TANGENT": 8,
            "TEXCOORD_0": 10
          },
          "indices": 11,
          "material": 0,
          "mode": 4
        }
      ]
    },
    {
      "primitives": [
        {
          "attributes": {
            "COLOR_0": 15,
            "NORMAL": 13,
            "POSITION": 12,
            "TANGENT": 14,
            "TEXCOORD_0": 16
          },
          "indices": 17,
          "material": 0,
          "mode": 4
        }
      ]
    }
  ],
  "nodes": [
    {
      "children": [
        1
      ],
      "name": "RootNode (gltf orientation matrix)",
      "rotation": [
        -0.70710678118654746,
        -0,
        -0,
        0.70710678118654757
      ]
    },
    {
      "children": [
        2
      ],
      "matrix": [
        0.017280478030443192,
        0,
        0.99985069036483765,
        0,
        0,
        1,
        0,
        0,
        -0.99985069036483765,
        0,
        0.017280478030443192,
        0,
        0.114966981112957,
        0,
        -0.057030688971281052,
        1
      ],
      "name": "RootNode (model correction matrix)"
    },
    {
      "children": [
        3
      ],
      "matrix": [
        1,
        0,
        0,
        0,
        0,
        1,
        0,
        0,
        0,
        0,
        1,
        0,
        -1.261396050453186,
        -5.7700748443603516,
        -0.84599602222442627,
        1
      ],
      "name": "louvre-demosthenes-photoscan.obj.cleaner.gles"
    },
    {
      "children": [
        4,
        5,
        6
      ],
      "name": ""
    },
    {
      "mesh": 0,
      "name": ""
    },
    {
      "mesh": 1,
      "name": ""
    },
    {
      "mesh": 2,
      "name": ""
    }
  ],
  "samplers": [
    {
      "magFilter": 9729,
      "minFilter": 9987,
      "wrapS": 10497,
      "wrapT": 10497
    }
  ],
  "scene": 0,
  "scenes": [
    {
      "name": "OSG_Scene",
      "nodes": [
        0
      ]
    }
  ],
  "textures": [
    {
      "sampler": 0,
      "source": 0
    }
  ]
}

